<svg width="14" height="13" viewBox="0 0 14 13" fill="none" xmlns="http://www.w3.org/2000/svg">
<path opacity="1" d="M6.41032 2.23235C6.60716 1.83359 7.17579 1.83359 7.37262 2.23235L8.3787 4.27056C8.45679 4.42876 8.60767 4.53847 8.78224 4.56399L11.033 4.89296C11.4729 4.95727 11.6483 5.49805 11.3297 5.80827L9.70198 7.39371C9.57542 7.51699 9.51765 7.69466 9.54751 7.8688L9.93156 10.108C10.0067 10.5463 9.54661 10.8806 9.15296 10.6736L7.14122 9.61562C6.98487 9.5334 6.79807 9.5334 6.64172 9.61562L4.62998 10.6736C4.23634 10.8806 3.7762 10.5463 3.85139 10.108L4.23543 7.8688C4.2653 7.69466 4.20753 7.51699 4.08096 7.39371L2.4532 5.80827C2.13469 5.49805 2.31004 4.95727 2.74998 4.89296L5.0007 4.56399C5.17528 4.53847 5.32615 4.42876 5.40425 4.27056L6.41032 2.23235Z" fill="#4E60FF"/>
</svg>
